<svg preserveAspectRatio="none" overflow="visible" style="display: block;" width="18" height="18" viewBox="0 0 18 18" fill="none" xmlns="http://www.w3.org/2000/svg">
<g id="More">
<path id="Vector" d="M3.75 9.975C4.28848 9.975 4.725 9.53848 4.725 9C4.725 8.46152 4.28848 8.025 3.75 8.025C3.21152 8.025 2.775 8.46152 2.775 9C2.775 9.53848 3.21152 9.975 3.75 9.975Z" fill="#5F6E85"/>
<path id="Vector_2" d="M9 9.975C9.53848 9.975 9.975 9.53848 9.975 9C9.975 8.46152 9.53848 8.025 9 8.025C8.46152 8.025 8.025 8.46152 8.025 9C8.025 9.53848 8.46152 9.975 9 9.975Z" fill="#5F6E85"/>
<path id="Vector_3" d="M14.25 9.975C14.7885 9.975 15.225 9.53848 15.225 9C15.225 8.46152 14.7885 8.025 14.25 8.025C13.7115 8.025 13.275 8.46152 13.275 9C13.275 9.53848 13.7115 9.975 14.25 9.975Z" fill="#5F6E85"/>
</g>
</svg>
